<svg width="265" height="80" viewBox="0 0 265 80" fill="none" xmlns="http://www.w3.org/2000/svg">
<path d="M31.6329 41.9264H27.0571V56.6486L29.4445 57.6434L46.952 48.6907V30.9842L35.015 25.0157V45.7064L39.3919 43.518V31.5811L42.5751 33.1727V46.5022L31.6329 51.8739V41.9264Z" fill="#67BEC7"/>
<path d="M24.0728 33.9685L19.497 36.3558V47.8949L16.3138 46.5022V33.1727L27.455 27.801V37.7485H31.8318V23.4242L29.4445 22.2305L11.937 31.1832V48.6907L24.0728 54.6591V33.9685Z" fill="#67BEC7"/>
<path d="M85.7618 55.937H80.9866V42.7503H67.5202V55.937H62.725V26.7264H67.5202V38.6744H80.9866V26.7264H85.7618V55.937ZM100.598 33.3997C102.569 33.3997 104.261 33.8059 105.673 34.6185C107.085 35.431 108.17 36.5831 108.93 38.075C109.689 39.5668 110.068 41.3517 110.068 43.4296V45.947H95.3033C95.3566 48.0915 95.9294 49.7432 97.0216 50.902C98.1272 52.0609 99.6723 52.6403 101.657 52.6403C103.069 52.6403 104.334 52.5071 105.453 52.2407C106.585 51.961 107.751 51.5547 108.95 51.0219V54.8381C107.844 55.3575 106.718 55.7372 105.573 55.9769C104.427 56.2167 103.056 56.3365 101.457 56.3365C99.286 56.3365 97.3746 55.917 95.7229 55.0778C94.0846 54.2253 92.7992 52.96 91.8668 51.2816C90.9477 49.6033 90.4882 47.5188 90.4882 45.028C90.4882 42.5505 90.9078 40.4459 91.7469 38.7143C92.5861 36.9827 93.7649 35.6641 95.2834 34.7583C96.8018 33.8526 98.5734 33.3997 100.598 33.3997ZM100.598 36.9361C99.1195 36.9361 97.9207 37.4156 97.0016 38.3747C96.0959 39.3337 95.5631 40.739 95.4032 42.5904H105.473C105.46 41.4849 105.273 40.5059 104.914 39.6534C104.567 38.8009 104.035 38.1349 103.315 37.6554C102.609 37.1759 101.704 36.9361 100.598 36.9361ZM120.449 65.767C117.452 65.767 115.155 65.2276 113.556 64.1487C111.958 63.0698 111.159 61.5579 111.159 59.6132C111.159 58.2546 111.585 57.1024 112.437 56.1567C113.29 55.2243 114.508 54.5783 116.094 54.2187C115.494 53.9523 114.975 53.5394 114.535 52.9799C114.109 52.4072 113.896 51.7745 113.896 51.0818C113.896 50.256 114.129 49.5501 114.595 48.964C115.061 48.3779 115.761 47.8118 116.693 47.2657C115.534 46.7729 114.602 45.9737 113.896 44.8681C113.203 43.7492 112.857 42.4372 112.857 40.9321C112.857 39.3337 113.196 37.9751 113.876 36.8562C114.555 35.724 115.547 34.8649 116.853 34.2788C118.158 33.6794 119.737 33.3797 121.588 33.3797C121.988 33.3797 122.421 33.4064 122.887 33.4596C123.366 33.4996 123.806 33.5529 124.205 33.6195C124.618 33.6728 124.931 33.7327 125.144 33.7993H132.797V36.4166L129.04 37.1159C129.4 37.6221 129.687 38.2015 129.9 38.8542C130.113 39.4935 130.219 40.1928 130.219 40.9521C130.219 43.2431 129.427 45.0479 127.842 46.3666C126.27 47.672 124.099 48.3246 121.328 48.3246C120.662 48.298 120.016 48.2447 119.39 48.1648C118.911 48.4578 118.544 48.7842 118.291 49.1438C118.038 49.4901 117.912 49.8831 117.912 50.3226C117.912 50.6823 118.038 50.9753 118.291 51.2017C118.544 51.4148 118.917 51.5747 119.41 51.6812C119.916 51.7878 120.529 51.8411 121.248 51.8411H125.065C127.489 51.8411 129.34 52.3539 130.619 53.3795C131.898 54.4052 132.537 55.9103 132.537 57.895C132.537 60.4124 131.498 62.3505 129.42 63.7091C127.342 65.0811 124.352 65.767 120.449 65.767ZM120.629 62.4704C122.267 62.4704 123.646 62.3105 124.765 61.9908C125.884 61.6712 126.729 61.2116 127.302 60.6122C127.875 60.0262 128.161 59.3269 128.161 58.5143C128.161 57.7951 127.982 57.2423 127.622 56.856C127.262 56.4697 126.723 56.2033 126.004 56.0568C125.284 55.9103 124.392 55.8371 123.326 55.8371H119.85C118.984 55.8371 118.218 55.9703 117.552 56.2366C116.886 56.5164 116.367 56.916 115.994 57.4354C115.634 57.9549 115.454 58.5809 115.454 59.3135C115.454 60.3259 115.9 61.1051 116.793 61.6512C117.699 62.1973 118.977 62.4704 120.629 62.4704ZM121.548 45.2477C122.92 45.2477 123.939 44.8748 124.605 44.1289C125.271 43.3696 125.604 42.304 125.604 40.9321C125.604 39.4403 125.258 38.3214 124.565 37.5755C123.886 36.8296 122.873 36.4566 121.528 36.4566C120.209 36.4566 119.204 36.8362 118.511 37.5955C117.832 38.3547 117.492 39.4802 117.492 40.9721C117.492 42.3174 117.832 43.3696 118.511 44.1289C119.204 44.8748 120.216 45.2477 121.548 45.2477ZM154.886 33.8193V55.937H151.189L150.55 52.96H150.29C149.824 53.7192 149.231 54.3519 148.512 54.858C147.793 55.3509 146.994 55.7172 146.114 55.9569C145.235 56.21 144.31 56.3365 143.337 56.3365C141.672 56.3365 140.247 56.0568 139.062 55.4974C137.889 54.9246 136.99 54.0455 136.364 52.8601C135.738 51.6746 135.425 50.1428 135.425 48.2647V33.8193H140.14V47.3856C140.14 49.1038 140.487 50.3892 141.179 51.2417C141.885 52.0942 142.978 52.5204 144.456 52.5204C145.881 52.5204 147.014 52.2274 147.853 51.6413C148.692 51.0552 149.285 50.1894 149.631 49.0439C149.991 47.8984 150.17 46.4931 150.17 44.8282V33.8193H154.886ZM171.6 33.3997C171.973 33.3997 172.379 33.4197 172.819 33.4596C173.258 33.4996 173.638 33.5529 173.958 33.6195L173.518 38.015C173.238 37.9351 172.892 37.8752 172.479 37.8352C172.079 37.7953 171.72 37.7753 171.4 37.7753C170.561 37.7753 169.762 37.9151 169.003 38.1949C168.243 38.4613 167.571 38.8742 166.985 39.4336C166.399 39.9797 165.939 40.6657 165.606 41.4915C165.273 42.3174 165.106 43.2764 165.106 44.3686V55.937H160.391V33.8193H164.068L164.707 37.7153H164.927C165.366 36.9295 165.912 36.2102 166.565 35.5575C167.218 34.9048 167.964 34.3854 168.803 33.9991C169.655 33.5995 170.588 33.3997 171.6 33.3997ZM181.521 33.8193V55.937H176.826V33.8193H181.521ZM179.203 25.3478C179.923 25.3478 180.542 25.541 181.062 25.9272C181.594 26.3135 181.861 26.9795 181.861 27.9252C181.861 28.8576 181.594 29.5236 181.062 29.9232C180.542 30.3095 179.923 30.5026 179.203 30.5026C178.458 30.5026 177.825 30.3095 177.305 29.9232C176.799 29.5236 176.546 28.8576 176.546 27.9252C176.546 26.9795 176.799 26.3135 177.305 25.9272C177.825 25.541 178.458 25.3478 179.203 25.3478ZM195.938 56.3365C193.847 56.3365 192.035 55.9303 190.503 55.1178C188.971 54.3053 187.793 53.0599 186.967 51.3815C186.141 49.7032 185.728 47.5721 185.728 44.988C185.728 42.2974 186.181 40.0996 187.087 38.3947C187.992 36.6897 189.245 35.431 190.843 34.6185C192.455 33.8059 194.299 33.3997 196.377 33.3997C197.696 33.3997 198.888 33.5329 199.954 33.7993C201.033 34.0524 201.945 34.3654 202.691 34.7383L201.292 38.4946C200.48 38.1616 199.647 37.8818 198.795 37.6554C197.942 37.429 197.123 37.3157 196.337 37.3157C195.045 37.3157 193.966 37.6021 193.101 38.1749C192.248 38.7476 191.609 39.6001 191.183 40.7323C190.77 41.8645 190.563 43.2697 190.563 44.948C190.563 46.5731 190.776 47.945 191.203 49.0639C191.629 50.1694 192.261 51.0086 193.101 51.5813C193.94 52.1408 194.972 52.4205 196.198 52.4205C197.41 52.4205 198.495 52.274 199.454 51.9809C200.413 51.6879 201.319 51.3083 202.171 50.8421V54.918C201.332 55.3975 200.433 55.7505 199.474 55.9769C198.515 56.2167 197.336 56.3365 195.938 56.3365ZM210.834 24.8483V32.6604C210.834 33.473 210.807 34.2655 210.754 35.038C210.714 35.8106 210.667 36.41 210.614 36.8362H210.874C211.34 36.0637 211.913 35.431 212.592 34.9381C213.272 34.432 214.031 34.0524 214.87 33.7993C215.722 33.5462 216.628 33.4197 217.587 33.4197C219.279 33.4197 220.717 33.7061 221.903 34.2788C223.088 34.8382 223.994 35.7107 224.62 36.8962C225.259 38.0816 225.579 39.6201 225.579 41.5115V55.937H220.884V42.3906C220.884 40.6724 220.531 39.387 219.825 38.5345C219.119 37.6687 218.027 37.2358 216.548 37.2358C215.123 37.2358 213.991 37.5355 213.152 38.1349C212.326 38.721 211.733 39.5934 211.373 40.7523C211.014 41.8978 210.834 43.2964 210.834 44.948V55.937H206.139V24.8483H210.834ZM250.505 44.8282C250.505 46.6663 250.265 48.298 249.786 49.7232C249.306 51.1484 248.607 52.3539 247.688 53.3396C246.769 54.3119 245.663 55.0578 244.371 55.5773C243.079 56.0835 241.621 56.3365 239.996 56.3365C238.477 56.3365 237.085 56.0835 235.82 55.5773C234.555 55.0578 233.456 54.3119 232.523 53.3396C231.604 52.3539 230.892 51.1484 230.385 49.7232C229.879 48.298 229.626 46.6663 229.626 44.8282C229.626 42.3906 230.046 40.326 230.885 38.6344C231.737 36.9295 232.95 35.6308 234.521 34.7383C236.093 33.8459 237.964 33.3997 240.136 33.3997C242.174 33.3997 243.972 33.8459 245.53 34.7383C247.089 35.6308 248.307 36.9295 249.186 38.6344C250.066 40.3394 250.505 42.4039 250.505 44.8282ZM234.461 44.8282C234.461 46.4399 234.654 47.8185 235.041 48.964C235.44 50.1095 236.053 50.9886 236.879 51.6013C237.705 52.2007 238.77 52.5004 240.076 52.5004C241.381 52.5004 242.447 52.2007 243.272 51.6013C244.098 50.9886 244.704 50.1095 245.091 48.964C245.477 47.8185 245.67 46.4399 245.67 44.8282C245.67 43.2165 245.477 41.8512 245.091 40.7323C244.704 39.6001 244.098 38.741 243.272 38.1549C242.447 37.5555 241.374 37.2558 240.056 37.2558C238.111 37.2558 236.692 37.9085 235.8 39.2138C234.908 40.5192 234.461 42.3906 234.461 44.8282Z" fill="#4B4B4B"/>
</svg>
