<svg width="200" height="61" viewBox="0 0 200 61" fill="none" xmlns="http://www.w3.org/2000/svg">
<path d="M23.7701 32.3185H20.3317V43.3813L22.1257 44.1288L35.2815 37.4014V24.0961L26.3116 19.6112V35.159L29.6006 33.5145V24.5446L31.9925 25.7406V35.757L23.7701 39.7934V32.3185Z" fill="#67BEC7"/>
<path d="M18.0892 26.3386L14.6508 28.1325V36.8034L12.2588 35.7569V25.7406L20.6307 21.7041V29.179H23.9196V18.4152L22.1256 17.5182L8.96985 24.2456V37.4014L18.0892 41.8863V26.3386Z" fill="#67BEC7"/>
<path d="M64.4446 42.8235H60.8563V32.9145H50.7372V42.8235H47.1339V20.8736H50.7372V29.8517H60.8563V20.8736H64.4446V42.8235ZM75.5931 25.8882C77.0744 25.8882 78.3456 26.1934 79.4065 26.804C80.4675 27.4145 81.2832 28.2803 81.8538 29.4013C82.4243 30.5223 82.7095 31.8636 82.7095 33.425V35.3167H71.6145C71.6545 36.9281 72.0849 38.1693 72.9057 39.0401C73.7364 39.9108 74.8975 40.3462 76.3888 40.3462C77.4498 40.3462 78.4006 40.2462 79.2414 40.046C80.0922 39.8358 80.968 39.5305 81.8688 39.1301V41.9977C81.038 42.3881 80.1923 42.6734 79.3315 42.8535C78.4707 43.0337 77.4398 43.1238 76.2387 43.1238C74.6072 43.1238 73.1709 42.8085 71.9298 42.1779C70.6987 41.5373 69.7328 40.5865 69.0322 39.3253C68.3415 38.0642 67.9962 36.4978 67.9962 34.6261C67.9962 32.7644 68.3115 31.1829 68.9421 29.8818C69.5726 28.5806 70.4584 27.5897 71.5995 26.9091C72.7405 26.2285 74.0717 25.8882 75.5931 25.8882ZM75.5931 28.5456C74.4821 28.5456 73.5813 28.9059 72.8906 29.6265C72.21 30.3472 71.8097 31.4031 71.6896 32.7944H79.2564C79.2464 31.9637 79.1063 31.228 78.836 30.5874C78.5758 29.9468 78.1754 29.4464 77.6349 29.086C77.1045 28.7257 76.4238 28.5456 75.5931 28.5456ZM90.51 50.2102C88.258 50.2102 86.5314 49.8048 85.3303 48.9941C84.1292 48.1833 83.5287 47.0473 83.5287 45.586C83.5287 44.5651 83.849 43.6993 84.4895 42.9886C85.1301 42.288 86.046 41.8026 87.237 41.5323C86.7866 41.3321 86.3963 41.0219 86.066 40.6015C85.7457 40.1711 85.5855 39.6957 85.5855 39.1752C85.5855 38.5546 85.7607 38.0241 86.111 37.5837C86.4613 37.1433 86.9868 36.718 87.6874 36.3076C86.8167 35.9373 86.116 35.3367 85.5855 34.506C85.0651 33.6652 84.8048 32.6793 84.8048 31.5483C84.8048 30.3472 85.0601 29.3263 85.5705 28.4855C86.081 27.6347 86.8267 26.9891 87.8076 26.5487C88.7884 26.0983 89.9745 25.8731 91.3658 25.8731C91.666 25.8731 91.9913 25.8932 92.3417 25.9332C92.702 25.9632 93.0323 26.0033 93.3326 26.0533C93.6428 26.0933 93.878 26.1384 94.0382 26.1884H99.7884V28.1552L96.9658 28.6807C97.2361 29.061 97.4513 29.4964 97.6114 29.9869C97.7716 30.4673 97.8516 30.9928 97.8516 31.5633C97.8516 33.2848 97.2561 34.6411 96.065 35.632C94.884 36.6129 93.2525 37.1033 91.1706 37.1033C90.6701 37.0833 90.1847 37.0433 89.7143 36.9832C89.354 37.2034 89.0787 37.4486 88.8885 37.7189C88.6984 37.9791 88.6033 38.2744 88.6033 38.6047C88.6033 38.8749 88.6984 39.0951 88.8885 39.2653C89.0787 39.4254 89.359 39.5455 89.7293 39.6256C90.1096 39.7057 90.5701 39.7457 91.1105 39.7457H93.9781C95.7998 39.7457 97.191 40.131 98.1519 40.9017C99.1128 41.6724 99.5932 42.8035 99.5932 44.2948C99.5932 46.1865 98.8125 47.6429 97.2511 48.6638C95.6897 49.6947 93.4427 50.2102 90.51 50.2102ZM90.6451 47.7329C91.8762 47.7329 92.9122 47.6128 93.7529 47.3726C94.5937 47.1324 95.2293 46.7871 95.6597 46.3367C96.0901 45.8963 96.3052 45.3708 96.3052 44.7602C96.3052 44.2198 96.1701 43.8044 95.8999 43.5141C95.6296 43.2238 95.2243 43.0237 94.6838 42.9136C94.1433 42.8035 93.4727 42.7484 92.672 42.7484H90.0596C89.409 42.7484 88.8335 42.8485 88.333 43.0487C87.8326 43.2589 87.4422 43.5592 87.162 43.9495C86.8917 44.3399 86.7566 44.8103 86.7566 45.3608C86.7566 46.1215 87.0919 46.707 87.7625 47.1174C88.4431 47.5277 89.404 47.7329 90.6451 47.7329ZM91.3357 34.7912C92.3667 34.7912 93.1324 34.511 93.6328 33.9505C94.1333 33.3799 94.3835 32.5792 94.3835 31.5483C94.3835 30.4273 94.1233 29.5865 93.6028 29.026C93.0923 28.4655 92.3316 28.1852 91.3207 28.1852C90.3298 28.1852 89.5742 28.4705 89.0537 29.041C88.5432 29.6115 88.288 30.4573 88.288 31.5783C88.288 32.5892 88.5432 33.3799 89.0537 33.9505C89.5742 34.511 90.3348 34.7912 91.3357 34.7912ZM116.387 26.2034V42.8235H113.609L113.129 40.5865H112.934C112.583 41.157 112.138 41.6324 111.597 42.0128C111.057 42.3831 110.456 42.6583 109.796 42.8385C109.135 43.0287 108.44 43.1238 107.709 43.1238C106.458 43.1238 105.387 42.9136 104.496 42.4932C103.615 42.0628 102.94 41.4022 102.469 40.5114C101.999 39.6206 101.764 38.4695 101.764 37.0583V26.2034H105.307V36.3977C105.307 37.6888 105.567 38.6547 106.088 39.2953C106.618 39.9359 107.439 40.2562 108.55 40.2562C109.621 40.2562 110.471 40.036 111.102 39.5956C111.733 39.1552 112.178 38.5046 112.438 37.6438C112.709 36.783 112.844 35.7271 112.844 34.4759V26.2034H116.387ZM128.947 25.8882C129.227 25.8882 129.532 25.9032 129.862 25.9332C130.193 25.9632 130.478 26.0033 130.718 26.0533L130.388 29.3563C130.178 29.2962 129.917 29.2512 129.607 29.2212C129.307 29.1911 129.037 29.1761 128.796 29.1761C128.166 29.1761 127.565 29.2812 126.995 29.4914C126.424 29.6916 125.919 30.0019 125.478 30.4223C125.038 30.8326 124.693 31.3481 124.443 31.9687C124.192 32.5892 124.067 33.3099 124.067 34.1306V42.8235H120.524V26.2034H123.286L123.767 29.1311H123.932C124.262 28.5406 124.673 28.0001 125.163 27.5096C125.654 27.0192 126.214 26.6288 126.845 26.3386C127.485 26.0383 128.186 25.8882 128.947 25.8882ZM136.402 26.2034V42.8235H132.874V26.2034H136.402ZM134.66 19.8377C135.201 19.8377 135.666 19.9828 136.056 20.2731C136.457 20.5633 136.657 21.0638 136.657 21.7744C136.657 22.4751 136.457 22.9755 136.056 23.2758C135.666 23.566 135.201 23.7112 134.66 23.7112C134.1 23.7112 133.624 23.566 133.234 23.2758C132.854 22.9755 132.663 22.4751 132.663 21.7744C132.663 21.0638 132.854 20.5633 133.234 20.2731C133.624 19.9828 134.1 19.8377 134.66 19.8377ZM147.235 43.1238C145.664 43.1238 144.302 42.8185 143.151 42.2079C142 41.5974 141.114 40.6615 140.494 39.4004C139.873 38.1392 139.563 36.5378 139.563 34.596C139.563 32.5742 139.903 30.9227 140.584 29.6415C141.265 28.3604 142.205 27.4145 143.406 26.804C144.618 26.1934 146.004 25.8882 147.565 25.8882C148.556 25.8882 149.452 25.9882 150.253 26.1884C151.063 26.3786 151.749 26.6138 152.31 26.8941L151.259 29.7166C150.648 29.4664 150.022 29.2562 149.382 29.086C148.741 28.9159 148.126 28.8308 147.535 28.8308C146.564 28.8308 145.754 29.046 145.103 29.4764C144.462 29.9068 143.982 30.5474 143.662 31.3981C143.351 32.2489 143.196 33.3049 143.196 34.566C143.196 35.7871 143.356 36.818 143.677 37.6588C143.997 38.4896 144.472 39.1201 145.103 39.5505C145.734 39.9709 146.509 40.1811 147.43 40.1811C148.341 40.1811 149.157 40.071 149.877 39.8508C150.598 39.6306 151.279 39.3453 151.919 38.995V42.0578C151.289 42.4181 150.613 42.6834 149.892 42.8535C149.172 43.0337 148.286 43.1238 147.235 43.1238ZM158.429 19.4623V25.3326C158.429 25.9432 158.408 26.5387 158.368 27.1193C158.338 27.6998 158.303 28.1502 158.263 28.4705H158.459C158.809 27.89 159.239 27.4145 159.75 27.0442C160.26 26.6639 160.831 26.3786 161.461 26.1884C162.102 25.9983 162.782 25.9032 163.503 25.9032C164.774 25.9032 165.855 26.1184 166.746 26.5487C167.637 26.9691 168.317 27.6247 168.788 28.5155C169.268 29.4063 169.509 30.5624 169.509 31.9837V42.8235H165.98V32.6443C165.98 31.3531 165.715 30.3872 165.185 29.7466C164.654 29.0961 163.833 28.7708 162.722 28.7708C161.651 28.7708 160.801 28.996 160.17 29.4464C159.55 29.8868 159.104 30.5424 158.834 31.4132C158.564 32.2739 158.429 33.3249 158.429 34.566V42.8235H154.9V19.4623H158.429ZM188.239 34.4759C188.239 35.8572 188.059 37.0833 187.698 38.1543C187.338 39.2252 186.813 40.131 186.122 40.8717C185.431 41.6024 184.601 42.1629 183.63 42.5532C182.659 42.9336 181.563 43.1238 180.342 43.1238C179.201 43.1238 178.155 42.9336 177.204 42.5532C176.253 42.1629 175.427 41.6024 174.727 40.8717C174.036 40.131 173.501 39.2252 173.12 38.1543C172.74 37.0833 172.55 35.8572 172.55 34.4759C172.55 32.6443 172.865 31.0929 173.496 29.8217C174.136 28.5406 175.047 27.5647 176.228 26.8941C177.409 26.2235 178.815 25.8882 180.447 25.8882C181.978 25.8882 183.329 26.2235 184.501 26.8941C185.672 27.5647 186.587 28.5406 187.248 29.8217C187.909 31.1029 188.239 32.6543 188.239 34.4759ZM176.183 34.4759C176.183 35.687 176.328 36.723 176.618 37.5837C176.919 38.4445 177.379 39.1051 178 39.5655C178.62 40.0159 179.421 40.2411 180.402 40.2411C181.383 40.2411 182.183 40.0159 182.804 39.5655C183.425 39.1051 183.88 38.4445 184.17 37.5837C184.46 36.723 184.606 35.687 184.606 34.4759C184.606 33.2648 184.46 32.2389 184.17 31.3981C183.88 30.5474 183.425 29.9018 182.804 29.4614C182.183 29.011 181.378 28.7858 180.387 28.7858C178.925 28.7858 177.859 29.2762 177.189 30.2571C176.518 31.238 176.183 32.6443 176.183 34.4759Z" fill="#4B4B4B"/>
</svg>
