<svg width="18" height="19" viewBox="0 0 18 19" fill="none" xmlns="http://www.w3.org/2000/svg">
<path d="M13.2825 8.96754L9.53254 5.21754C9.46122 5.14926 9.37711 5.09574 9.28504 5.06004C9.10245 4.98503 8.89764 4.98503 8.71504 5.06004C8.62298 5.09574 8.53887 5.14926 8.46754 5.21754L4.71754 8.96754C4.64761 9.03747 4.59214 9.12049 4.5543 9.21186C4.51645 9.30322 4.49697 9.40115 4.49697 9.50004C4.49697 9.69977 4.57632 9.89132 4.71754 10.0325C4.85877 10.1738 5.05032 10.2531 5.25004 10.2531C5.44977 10.2531 5.64132 10.1738 5.78254 10.0325L8.25004 7.55754V13.25C8.25004 13.449 8.32906 13.6397 8.46971 13.7804C8.61037 13.921 8.80113 14 9.00004 14C9.19896 14 9.38972 13.921 9.53037 13.7804C9.67103 13.6397 9.75004 13.449 9.75004 13.25V7.55754L12.2175 10.0325C12.2873 10.1028 12.3702 10.1586 12.4616 10.1967C12.553 10.2348 12.651 10.2544 12.75 10.2544C12.8491 10.2544 12.9471 10.2348 13.0385 10.1967C13.1299 10.1586 13.2128 10.1028 13.2825 10.0325C13.3528 9.96282 13.4086 9.87987 13.4467 9.78848C13.4848 9.69708 13.5044 9.59905 13.5044 9.50004C13.5044 9.40104 13.4848 9.30301 13.4467 9.21161C13.4086 9.12022 13.3528 9.03727 13.2825 8.96754Z" fill="#0D0700"/>
</svg>
